<svg width="20" height="20" viewBox="0 0 20 20" fill="none" xmlns="http://www.w3.org/2000/svg">
<g clip-path="url(#clip0_2_7625)">
<path d="M11.0402 3.61195V3.56395C11.0402 3.33995 11.1122 3.13995 11.2562 2.96395C11.4002 2.78795 11.5842 2.69995 11.8082 2.69995C12.0322 2.69995 12.2322 2.77195 12.4082 2.91595C12.5842 3.05995 12.6802 3.25195 12.6962 3.49195C12.7122 3.73195 12.6402 3.93195 12.4802 4.09195C12.3202 4.25195 12.1282 4.33195 11.9042 4.33195L11.7602 4.37995L11.8082 4.45195L11.7602 4.71595L11.6642 5.48395C11.6962 5.51595 11.7122 5.54795 11.7122 5.57995L11.6162 6.05995C11.5842 6.12395 11.5522 6.17195 11.5202 6.20395L11.4722 6.39595C11.4082 6.65195 11.3522 6.85995 11.3042 7.01995C11.2562 7.17995 11.2162 7.30795 11.1842 7.40395V7.49995C11.1522 7.65995 11.1282 7.78795 11.1122 7.88395C11.0962 7.97995 11.0402 8.13995 10.9442 8.36395C10.8802 8.49195 10.8802 8.69995 10.9442 8.98795L10.9922 9.03595C10.9922 9.13195 11.0322 9.24395 11.1122 9.37195C11.1922 9.49995 11.2322 9.61195 11.2322 9.70795C11.2642 10.348 11.2162 10.892 11.0882 11.34L11.1842 11.628C11.5682 11.82 11.6802 12.028 11.5202 12.252L11.7602 12.348C12.1442 12.54 12.4162 12.708 12.5762 12.852C12.7362 12.996 12.8962 13.148 13.0562 13.308C13.1842 13.34 13.2802 13.388 13.3442 13.452L13.4882 13.5C14.1602 13.948 14.8322 14.492 15.5042 15.132L15.6962 15.276V15.324L15.6482 15.42L15.7922 15.516H15.8402C15.9362 15.58 16.0002 15.612 16.0322 15.612H16.0802C16.1122 15.612 16.1442 15.596 16.1762 15.564L16.2722 15.516C16.3362 15.452 16.4002 15.404 16.4642 15.372H16.6562C16.6882 15.372 16.6882 15.388 16.6562 15.42L16.4642 15.516L16.2242 15.804H16.5602L16.8962 15.852C16.9922 15.82 17.0722 15.788 17.1362 15.756L17.3762 15.612C17.4722 15.58 17.5682 15.612 17.6642 15.708H17.7122C17.7442 15.74 17.7282 15.788 17.6642 15.852L17.0882 16.38C16.9282 16.508 16.7842 16.588 16.6562 16.62L16.0322 17.052C16.0002 17.084 15.9682 17.084 15.9362 17.052L15.7922 16.86L15.6962 16.668L15.5762 16.5L15.4322 16.308L15.3122 16.164L15.2162 16.044L15.0242 15.9C14.9602 15.9 14.8962 15.884 14.8322 15.852L14.2082 15.372C14.1122 15.372 14.0002 15.324 13.8722 15.228C13.3922 14.812 13.0722 14.556 12.9122 14.46L12.6242 14.268L12.0482 14.172C11.8562 14.14 11.6002 14.044 11.2802 13.884L10.8962 13.692C10.6402 13.564 10.4642 13.5 10.3682 13.5L10.1762 13.404C10.0482 13.372 9.95216 13.34 9.88816 13.308L9.79216 13.212C9.72816 13.212 9.66416 13.228 9.60016 13.26L8.64016 13.74L7.44016 14.268C7.12016 14.524 6.81616 14.732 6.52816 14.892L6.00016 15.132L5.18416 15.708C5.12016 15.772 5.05616 15.772 4.99216 15.708L4.89616 15.804C4.80016 15.836 4.73616 15.852 4.70416 15.852L4.51216 15.948V16.044H4.41616L4.32016 16.188C4.25616 16.316 4.19216 16.388 4.12816 16.404C4.06416 16.42 4.02416 16.444 4.00816 16.476C3.99216 16.508 3.97616 16.532 3.96016 16.548L3.86416 16.644L3.72016 16.74L3.50416 16.716L3.21616 16.764L3.02416 16.812C2.86416 16.844 2.73616 16.82 2.64016 16.74C2.54416 16.66 2.46416 16.54 2.40016 16.38C2.33616 16.284 2.36816 16.204 2.49616 16.14L2.54416 16.092C2.57616 16.06 2.62416 16.044 2.68816 16.044H2.97616L3.36016 15.9L3.55216 15.852C3.55216 15.788 3.56816 15.74 3.60016 15.708C3.63216 15.676 3.68016 15.66 3.74416 15.66V15.612C3.71216 15.548 3.69616 15.484 3.69616 15.42C3.66416 15.356 3.65616 15.308 3.67216 15.276C3.68816 15.244 3.70416 15.228 3.72016 15.228H3.74416L3.79216 15.372C3.82416 15.532 3.87216 15.58 3.93616 15.516L3.98416 15.42C4.01616 15.356 4.06416 15.324 4.12816 15.324L4.22416 15.42L4.32016 15.324L4.27216 15.276C4.27216 15.244 4.28816 15.228 4.32016 15.228L4.51216 15.036C4.67216 14.844 4.86416 14.668 5.08816 14.508C5.53616 14.156 6.01616 13.884 6.52816 13.692C6.68816 13.532 6.86416 13.452 7.05616 13.452C7.18416 13.228 7.37616 12.988 7.63216 12.732C7.85616 12.572 8.01616 12.46 8.11216 12.396C8.17616 12.268 8.25616 12.204 8.35216 12.204H8.40016L8.49616 12.108C8.56016 12.076 8.60816 12.044 8.64016 12.012V11.772C8.64016 11.612 8.65616 11.484 8.68816 11.388C8.72016 11.292 8.80016 11.244 8.92816 11.244L9.12016 11.052C9.05616 10.924 9.02416 10.78 9.02416 10.62H8.97616C8.91216 10.524 8.88016 10.428 8.88016 10.332C8.78416 10.172 8.72016 10.044 8.68816 9.94795H8.54416C8.51216 10.044 8.43216 10.108 8.30416 10.14L8.25616 10.236C8.12816 10.46 8.01616 10.628 7.92016 10.74C7.82416 10.852 7.64816 10.988 7.39216 11.148C7.23216 11.308 7.12016 11.484 7.05616 11.676C7.02416 11.772 7.02416 11.868 7.05616 11.964L7.00816 12.06H7.05616C7.05616 12.124 7.07216 12.156 7.10416 12.156H7.15216C7.21616 12.188 7.24816 12.228 7.24816 12.276C7.24816 12.324 7.20016 12.34 7.10416 12.324C7.00816 12.308 6.93616 12.276 6.88816 12.228C6.84016 12.18 6.80016 12.156 6.76816 12.156L6.62416 12.3C6.56016 12.396 6.49616 12.436 6.43216 12.42C6.36816 12.404 6.35216 12.38 6.38416 12.348L6.43216 12.3C6.46416 12.236 6.46416 12.204 6.43216 12.204L6.04816 12.3C6.01616 12.332 5.97616 12.332 5.92816 12.3C5.88016 12.268 5.88816 12.236 5.95216 12.204L6.19216 12.108C6.19216 12.076 6.17616 12.06 6.14416 12.06C6.01616 12.124 5.88816 12.14 5.76016 12.108L5.52016 12.06L5.47216 12.012C5.47216 11.98 5.48816 11.964 5.52016 11.964C5.64816 11.996 5.80816 11.98 6.00016 11.916L6.33616 11.772L6.72016 11.34L6.76816 11.244C6.89616 10.988 7.03216 10.756 7.17616 10.548C7.32016 10.34 7.47216 10.172 7.63216 10.044L7.68016 9.85195C7.74416 9.72395 7.80816 9.61195 7.87216 9.51595C7.93616 9.41995 8.01616 9.29195 8.11216 9.13195L8.25616 8.93995C8.38416 8.74795 8.52816 8.65195 8.68816 8.65195L8.83216 8.50795C8.86416 8.47595 8.88016 8.42795 8.88016 8.36395L8.97616 8.26795L8.92816 8.21995C8.73616 8.05995 8.64016 7.91595 8.64016 7.78795C8.60816 7.56395 8.68016 7.37195 8.85616 7.21195C9.03216 7.05195 9.20816 6.97995 9.38416 6.99595C9.56016 7.01195 9.69616 7.06795 9.79216 7.16395L9.88816 7.25995C9.92016 7.25995 9.93616 7.27595 9.93616 7.30795L10.1282 7.40395V7.54795C10.1922 7.61195 10.2242 7.65995 10.2242 7.69195C10.2882 7.59595 10.3842 7.48395 10.5122 7.35595L10.7522 6.58795C10.7522 6.45995 10.7842 6.33195 10.8482 6.20395L10.9442 6.05995V5.96395L11.0882 5.38795H11.1842L11.3282 4.81195C11.3602 4.71595 11.3602 4.60395 11.3282 4.47595L11.1362 3.99595L11.0402 3.61195Z" fill="#111111"/>
</g>
<defs>
<clipPath id="clip0_2_7625">
<rect width="19.2" height="19.2" fill="white" transform="translate(0.600098 0.300049)"/>
</clipPath>
</defs>
</svg>
